<?xml version="1.0" encoding="UTF-8" standalone="no"?>
<!-- Created with Inkscape (http://www.inkscape.org/) -->

<svg
   xmlns:dc="http://purl.org/dc/elements/1.1/"
   xmlns:cc="http://creativecommons.org/ns#"
   xmlns:rdf="http://www.w3.org/1999/02/22-rdf-syntax-ns#"
   xmlns:svg="http://www.w3.org/2000/svg"
   xmlns="http://www.w3.org/2000/svg"
   xmlns:sodipodi="http://sodipodi.sourceforge.net/DTD/sodipodi-0.dtd"
   xmlns:inkscape="http://www.inkscape.org/namespaces/inkscape"
   width="420"
   height="420"
   viewBox="0 0 420 420"
   version="1.1"
   id="svg4514"
   inkscape:version="0.92.1 r15371"
   sodipodi:docname="eInfinity_public.svg"
   inkscape:export-filename="C:\Users\yingk\Documents\eInfinity_public.png"
   inkscape:export-xdpi="100"
   inkscape:export-ydpi="100">
  <defs
     id="defs4508" />
  <sodipodi:namedview
     id="base"
     pagecolor="#ffffff"
     bordercolor="#666666"
     borderopacity="1.0"
     inkscape:pageopacity="1"
     inkscape:pageshadow="2"
     inkscape:zoom="1.1809524"
     inkscape:cx="87.217742"
     inkscape:cy="210"
     inkscape:document-units="px"
     inkscape:current-layer="layer1"
     showgrid="true"
     units="px"
     inkscape:window-width="1280"
     inkscape:window-height="657"
     inkscape:window-x="-8"
     inkscape:window-y="-8"
     inkscape:window-maximized="1"
     inkscape:pagecheckerboard="true">
    <inkscape:grid
       type="xygrid"
       id="grid5059" />
  </sodipodi:namedview>
  <metadata
     id="metadata4511">
    <rdf:RDF>
      <cc:Work
         rdf:about="">
        <dc:format>image/svg+xml</dc:format>
        <dc:type
           rdf:resource="http://purl.org/dc/dcmitype/StillImage" />
        <dc:title></dc:title>
      </cc:Work>
    </rdf:RDF>
  </metadata>
  <g
     inkscape:label="Layer 1"
     inkscape:groupmode="layer"
     id="layer1"
     transform="translate(0,-97.62498)"
     style="display:inline">
    <g
       id="g5102"
       transform="translate(125.00043,246.62454)"
       style="stroke-width:4;stroke-miterlimit:4;stroke-dasharray:none">
      <g
         transform="translate(-14.499996,-14.499567)"
         inkscape:label="e-layer"
         id="layer2"
         style="stroke-width:4;stroke-miterlimit:4;stroke-dasharray:none">
        <g
           transform="matrix(0.99998417,0,0,0.99999015,0.00137938,-24.999933)"
           style="stroke-width:4.0000515;stroke-miterlimit:4;stroke-dasharray:none"
           id="g4804">
          <path
             style="opacity:1;fill:#0000ff;fill-opacity:0.98591548;fill-rule:evenodd;stroke:#000000;stroke-width:4.0000515;stroke-linecap:round;stroke-linejoin:round;stroke-miterlimit:4;stroke-dasharray:none;stroke-opacity:1"
             d="m 46.40625,140.33008 a 104.1109,74.51363 0 0 1 1.244141,-5.6211 104.1109,74.51363 0 0 1 2.644531,-7.20507 104.1109,74.51363 0 0 1 3.595703,-6.90039 29.500137,29.500137 0 0 1 -7.132813,-12.16016 124.03643,74.51363 0 0 0 -5.703124,5.50976 124.03643,74.51363 0 0 0 -5.462891,6.68555 124.03643,74.51363 0 0 0 -2.978516,4.8086 49.50005,49.50005 0 0 0 13.792969,14.88281 z"
             id="path4752"
             inkscape:connector-curvature="0" />
          <path
             style="opacity:1;fill:#0000ff;fill-opacity:0.98591548;fill-rule:evenodd;stroke:#000000;stroke-width:4.0000515;stroke-linecap:round;stroke-linejoin:round;stroke-miterlimit:4;stroke-dasharray:none;stroke-opacity:1"
             d="M 109.98047,134.98047 95.845703,120.8457 A 29.500137,29.500137 0 0 1 75,129.5 a 29.500137,29.500137 0 0 1 -21.109375,-8.89648 104.1109,74.51363 0 0 0 -3.595703,6.90039 104.1109,74.51363 0 0 0 -2.644531,7.20507 104.1109,74.51363 0 0 0 -1.244141,5.6211 A 49.50005,49.50005 0 0 0 75,149.5 49.50005,49.50005 0 0 0 109.98047,134.98047 Z"
             id="path4750"
             inkscape:connector-curvature="0" />
          <path
             style="opacity:1;fill:#0000ff;fill-opacity:0.98591548;fill-rule:evenodd;stroke:#000000;stroke-width:4.0000515;stroke-linecap:round;stroke-linejoin:round;stroke-miterlimit:4;stroke-dasharray:none;stroke-opacity:1"
             d="m 119.2207,77.886719 a 124.03643,74.51363 0 0 0 -2.11718,0.277343 124.03643,74.51363 0 0 0 -11.79102,2.304688 124.03643,74.51363 0 0 0 -6.777344,1.791016 29.500137,29.500137 0 0 1 1.562504,2.277343 104.1109,74.51363 0 0 1 2.86523,-1.158203 104.1109,74.51363 0 0 1 9.5293,-2.99414 104.1109,74.51363 0 0 1 7.13476,-1.65625 49.50005,49.50005 0 0 0 -0.40625,-0.841797 z"
             id="path4748"
             inkscape:connector-curvature="0" />
          <path
             style="opacity:1;fill:#0000ff;fill-opacity:0.98591548;fill-rule:evenodd;stroke:#000000;stroke-width:4.0000515;stroke-linecap:round;stroke-linejoin:round;stroke-miterlimit:4;stroke-dasharray:none;stroke-opacity:1"
             d="m 75,50.5 a 49.50005,49.50005 0 0 0 -49.5,49.5 49.50005,49.50005 0 0 0 7.113281,25.44727 124.03643,74.51363 0 0 1 2.978516,-4.8086 124.03643,74.51363 0 0 1 5.462891,-6.68555 124.03643,74.51363 0 0 1 5.703124,-5.50976 A 29.500137,29.500137 0 0 1 45.5,100 29.500137,29.500137 0 0 1 75,70.5 29.500137,29.500137 0 0 1 98.535156,82.259766 124.03643,74.51363 0 0 1 105.3125,80.46875 124.03643,74.51363 0 0 1 117.10352,78.164062 124.03643,74.51363 0 0 1 119.2207,77.886719 49.50005,49.50005 0 0 0 75,50.5 Z"
             id="path4584"
             inkscape:connector-curvature="0" />
          <path
             inkscape:connector-curvature="0"
             id="path4617-9"
             style="opacity:1;vector-effect:none;fill:#00ffff;fill-opacity:1;fill-rule:evenodd;stroke:#000000;stroke-width:4.0000515;stroke-linecap:round;stroke-linejoin:round;stroke-miterlimit:4;stroke-dasharray:none;stroke-dashoffset:0;stroke-opacity:1"
             d="m 25.499016,149.50098 h 19.93137 A 104.1109,74.51363 0 0 1 141.53411,75.727746 124.03643,74.51363 0 0 0 25.499016,149.50098 Z M 149.00813,75.50309 v -0.004 a 104.1109,74.51363 0 0 0 -7.47402,0.228556 124.03643,74.51363 0 0 1 7.47402,-0.224646 z m 8e-5,0.0116 a 124.0073,74.501996 0 0 1 0.49802,-0.0156 104.08645,74.501996 0 0 0 -0.49802,0.0117 z" />
        </g>
      </g>
      <g
         transform="translate(-14.499996,-14.499567)"
         inkscape:label="star-layer"
         id="layer4"
         style="stroke-width:4;stroke-miterlimit:4;stroke-dasharray:none">
        <path
           inkscape:connector-curvature="0"
           id="path4776"
           d="m 150,25.499202 -3.56404,17.818271 -6.2361,-3.118055 3.11805,6.236109 -17.81827,3.564037 17.81827,3.564039 -3.11805,6.236108 6.2361,-3.118055 3.56404,17.818272 3.56402,-17.818272 6.23611,3.118055 -3.11805,-6.236108 17.81829,-3.564039 -17.81829,-3.564037 3.11805,-6.236109 -6.23611,3.118055 z"
           style="opacity:1;vector-effect:none;fill:#ffff00;fill-opacity:1;fill-rule:evenodd;stroke:#000000;stroke-width:4;stroke-linecap:butt;stroke-linejoin:round;stroke-miterlimit:4;stroke-dasharray:none;stroke-dashoffset:0;stroke-opacity:1" />
      </g>
      <g
         style="display:inline;stroke-width:4;stroke-miterlimit:4;stroke-dasharray:none"
         transform="translate(-14.499996,-437.01922)"
         id="layer1-1"
         inkscape:label="inf-layer">
        <g
           style="stroke-width:4;stroke-miterlimit:4;stroke-dasharray:none"
           transform="translate(-1.2172139e-6,24.999563)"
           id="g4579">
          <path
             style="opacity:1;fill:#ff00ff;fill-opacity:0.50196078;fill-rule:evenodd;stroke:#000000;stroke-width:4;stroke-linecap:round;stroke-linejoin:round;stroke-miterlimit:4;stroke-dasharray:none;stroke-opacity:1"
             d="m 99.499575,473.02008 a 24.000066,24.500056 0 0 0 -24.000026,24.50001 24.000066,24.500056 0 0 0 24.000026,24.50001 v -9.99015 A 14.214232,14.510355 0 0 1 85.285836,497.52009 14.214232,14.510355 0 0 1 99.499575,483.01023 Z"
             id="path4515"
             inkscape:connector-curvature="0" />
          <path
             style="opacity:1;fill:#ff00ff;fill-opacity:0.50196078;fill-rule:evenodd;stroke:#000000;stroke-width:4;stroke-linecap:round;stroke-linejoin:round;stroke-miterlimit:4;stroke-dasharray:none;stroke-opacity:1"
             d="m 150.49955,473.02008 v 9.99015 a 14.214238,14.510358 0 0 1 14.21373,14.50986 14.214238,14.510358 0 0 1 -14.21373,14.50986 v 9.99015 a 24.000077,24.500061 0 0 0 24.00002,-24.50001 24.000077,24.500061 0 0 0 -24.00002,-24.50001 z"
             id="path4507"
             inkscape:connector-curvature="0" />
          <path
             style="opacity:1;fill:#00ff00;fill-opacity:0.50196078;fill-rule:evenodd;stroke:#000000;stroke-width:4;stroke-linecap:round;stroke-linejoin:round;stroke-miterlimit:4;stroke-dasharray:none;stroke-opacity:1"
             d="m 149.4998,473.01999 a 24.541895,24.525799 0 0 0 -23.90235,22.05932 24.541895,24.525799 0 0 0 -0.0978,1.94072 24.541895,24.525799 0 0 0 24.00014,-24.00004 z"
             id="path4517"
             inkscape:connector-curvature="0" />
          <path
             inkscape:connector-curvature="0"
             style="opacity:1;fill:#00ff00;fill-opacity:0.50196078;fill-rule:evenodd;stroke:#000000;stroke-width:4;stroke-linecap:round;stroke-linejoin:round;stroke-miterlimit:4;stroke-dasharray:none;stroke-opacity:1"
             d="m 100.49949,522.02001 a 24.542593,24.526513 0 0 0 23.90304,-22.05995 24.542593,24.526513 0 0 0 0.0978,-1.94077 24.542593,24.526513 0 0 0 -24.00083,24.00072 z"
             id="path4517-6" />
          <path
             style="opacity:1;fill:#ff0005;fill-opacity:0.5023474;fill-rule:evenodd;stroke:#000000;stroke-width:4;stroke-linecap:round;stroke-linejoin:round;stroke-miterlimit:4;stroke-dasharray:none;stroke-opacity:1"
             d="m 149.4998,522.02003 a 24.541896,24.525789 0 0 1 -23.90235,-22.05933 24.541896,24.525789 0 0 1 -0.0978,-1.94071 24.541896,24.525789 0 0 1 24.00014,24.00004 z"
             id="path4517-3"
             inkscape:connector-curvature="0" />
          <path
             inkscape:connector-curvature="0"
             style="opacity:1;fill:#ff0005;fill-opacity:0.5023474;fill-rule:evenodd;stroke:#000000;stroke-width:4;stroke-linecap:round;stroke-linejoin:round;stroke-miterlimit:4;stroke-dasharray:none;stroke-opacity:1"
             d="m 100.49949,473.01929 a 24.542594,24.526513 0 0 1 23.90304,22.05995 24.542594,24.526513 0 0 1 0.0978,1.94077 24.542594,24.526513 0 0 1 -24.00083,-24.00072 z"
             id="path4517-6-8" />
          <circle
             style="opacity:1;fill:#ffff00;fill-opacity:1;fill-rule:evenodd;stroke:#000000;stroke-width:4;stroke-linecap:round;stroke-linejoin:round;stroke-miterlimit:4;stroke-dasharray:none;stroke-opacity:1"
             id="path4570"
             cx="125"
             cy="497.51965"
             r="5" />
        </g>
      </g>
    </g>
  </g>
  <g
     inkscape:groupmode="layer"
     id="layer3"
     inkscape:label="circle"
     transform="translate(0,120)">
    <path
       style="opacity:1;vector-effect:none;fill:#7eff00;fill-opacity:1;fill-rule:evenodd;stroke:#000000;stroke-width:4;stroke-linecap:round;stroke-linejoin:round;stroke-miterlimit:4;stroke-dasharray:none;stroke-dashoffset:0;stroke-opacity:1"
       d="m 301.92578,128.07617 46.19336,19.13477 a 149.5,149.5 0 0 0 -0.0859,-114.38672 l -46.16406,19.12109 a 99.499023,99.499023 0 0 1 0.0566,76.13086 z"
       id="path5305"
       inkscape:connector-curvature="0" />
    <path
       style="opacity:1;vector-effect:none;fill:#00ff42;fill-opacity:1;fill-rule:evenodd;stroke:#000000;stroke-width:4;stroke-linecap:round;stroke-linejoin:round;stroke-miterlimit:4;stroke-dasharray:none;stroke-dashoffset:0;stroke-opacity:1"
       d="m 248.05273,181.86719 19.12305,46.16601 a 149.5,149.5 0 0 0 80.94336,-80.82226 l -46.19336,-19.13477 a 99.499023,99.499023 0 0 1 -53.87305,53.79102 z"
       id="path5303"
       inkscape:connector-curvature="0" />
    <path
       style="opacity:1;vector-effect:none;fill:#00fcff;fill-opacity:1;fill-rule:evenodd;stroke:#000000;stroke-width:4;stroke-linecap:round;stroke-linejoin:round;stroke-miterlimit:4;stroke-dasharray:none;stroke-dashoffset:0;stroke-opacity:1"
       d="m 171.92383,181.92383 -19.13477,46.19531 a 149.5,149.5 0 0 0 114.38672,-0.0859 l -19.12305,-46.16601 a 99.499023,99.499023 0 0 1 -76.1289,0.0566 z"
       id="path5301"
       inkscape:connector-curvature="0" />
    <path
       style="opacity:1;vector-effect:none;fill:#003cff;fill-opacity:1;fill-rule:evenodd;stroke:#000000;stroke-width:4;stroke-linecap:round;stroke-linejoin:round;stroke-miterlimit:4;stroke-dasharray:none;stroke-dashoffset:0;stroke-opacity:1"
       d="m 118.13281,128.05273 -46.166013,19.12305 a 149.5,149.5 0 0 0 80.822263,80.94336 l 19.13477,-46.19531 a 99.499023,99.499023 0 0 1 -53.79102,-53.8711 z"
       id="path5299"
       inkscape:connector-curvature="0" />
    <path
       style="opacity:1;vector-effect:none;fill:#8401ff;fill-opacity:1;fill-rule:evenodd;stroke:#000000;stroke-width:4;stroke-linecap:round;stroke-linejoin:round;stroke-miterlimit:4;stroke-dasharray:none;stroke-dashoffset:0;stroke-opacity:1"
       d="M 118.07422,51.92383 71.880859,32.78906 a 149.5,149.5 0 0 0 0.08594,114.38672 l 46.166011,-19.12305 a 99.499023,99.499023 0 0 1 -0.0586,-76.1289 z"
       id="path5297"
       inkscape:connector-curvature="0" />
    <path
       style="opacity:1;vector-effect:none;fill:#ff01ba;fill-opacity:1;fill-rule:evenodd;stroke:#000000;stroke-width:4;stroke-linecap:round;stroke-linejoin:round;stroke-miterlimit:4;stroke-dasharray:none;stroke-dashoffset:0;stroke-opacity:1"
       d="M 171.94531,-1.86914 152.82422,-48.033203 A 149.5,149.5 0 0 0 71.880859,32.78906 l 46.193361,19.13477 a 99.499023,99.499023 0 0 1 53.87109,-53.79297 z"
       id="path5295"
       inkscape:connector-curvature="0" />
    <path
       style="opacity:1;vector-effect:none;fill:#ff0000;fill-opacity:1;fill-rule:evenodd;stroke:#000000;stroke-width:4;stroke-linecap:round;stroke-linejoin:round;stroke-miterlimit:4;stroke-dasharray:none;stroke-dashoffset:0;stroke-opacity:1"
       d="m 267.21094,-48.119141 a 149.5,149.5 0 0 0 -114.38672,0.08594 l 19.12109,46.164061 a 99.499023,99.499023 0 0 1 76.13086,-0.0566 z"
       id="path5293"
       inkscape:connector-curvature="0" />
    <path
       style="opacity:1;vector-effect:none;fill:#ffc000;fill-opacity:1;fill-rule:evenodd;stroke:#000000;stroke-width:4;stroke-linecap:round;stroke-linejoin:round;stroke-miterlimit:4;stroke-dasharray:none;stroke-dashoffset:0;stroke-opacity:1"
       d="M 267.21094,-48.119141 248.07617,-1.92578 a 99.499023,99.499023 0 0 1 53.79297,53.87109 L 348.0332,32.82422 a 149.5,149.5 0 0 0 -80.82226,-80.943361 z"
       id="path5277"
       inkscape:connector-curvature="0" />
    <circle
       style="opacity:1;vector-effect:none;fill:#ff0000;fill-opacity:1;fill-rule:evenodd;stroke:#000000;stroke-width:3.9000001;stroke-linecap:round;stroke-linejoin:round;stroke-miterlimit:4;stroke-dasharray:none;stroke-dashoffset:0;stroke-opacity:1"
       id="path5319"
       cx="209.6129"
       cy="-89.645164"
       r="19.002375" />
    <circle
       style="opacity:1;vector-effect:none;fill:#ffc000;fill-opacity:1;fill-rule:evenodd;stroke:#000000;stroke-width:4;stroke-linecap:round;stroke-linejoin:round;stroke-miterlimit:4;stroke-dasharray:none;stroke-dashoffset:0;stroke-opacity:1"
       id="path5321"
       cx="340"
       cy="-40"
       r="19.000118" />
    <circle
       style="opacity:1;vector-effect:none;fill:#7eff00;fill-opacity:1;fill-rule:evenodd;stroke:#000000;stroke-width:4;stroke-linecap:round;stroke-linejoin:round;stroke-miterlimit:4;stroke-dasharray:none;stroke-dashoffset:0;stroke-opacity:1"
       id="path5323"
       cx="390"
       cy="90"
       r="19.000118" />
    <ellipse
       style="opacity:1;vector-effect:none;fill:#00ff42;fill-opacity:1;fill-rule:evenodd;stroke:#000000;stroke-width:4;stroke-linecap:round;stroke-linejoin:round;stroke-miterlimit:4;stroke-dasharray:none;stroke-dashoffset:0;stroke-opacity:1"
       id="path5325"
       cx="340"
       cy="220"
       rx="19.000114"
       ry="19.000113" />
    <circle
       style="opacity:1;vector-effect:none;fill:#00fcff;fill-opacity:1;fill-rule:evenodd;stroke:#000000;stroke-width:4;stroke-linecap:round;stroke-linejoin:round;stroke-miterlimit:4;stroke-dasharray:none;stroke-dashoffset:0;stroke-opacity:1"
       id="path5327"
       cx="210"
       cy="270"
       r="19.000118" />
    <circle
       style="opacity:1;vector-effect:none;fill:#003cff;fill-opacity:1;fill-rule:evenodd;stroke:#000000;stroke-width:4;stroke-linecap:round;stroke-linejoin:round;stroke-miterlimit:4;stroke-dasharray:none;stroke-dashoffset:0;stroke-opacity:1"
       id="path5329"
       cx="80"
       cy="220"
       r="19.000118" />
    <circle
       style="opacity:1;vector-effect:none;fill:#8401ff;fill-opacity:1;fill-rule:evenodd;stroke:#000000;stroke-width:4;stroke-linecap:round;stroke-linejoin:round;stroke-miterlimit:4;stroke-dasharray:none;stroke-dashoffset:0;stroke-opacity:1"
       id="path5331"
       cx="30"
       cy="90"
       r="19.000118" />
    <circle
       style="opacity:1;vector-effect:none;fill:#ff01ba;fill-opacity:1;fill-rule:evenodd;stroke:#000000;stroke-width:4;stroke-linecap:round;stroke-linejoin:round;stroke-miterlimit:4;stroke-dasharray:none;stroke-dashoffset:0;stroke-opacity:1"
       id="path5333"
       cx="80"
       cy="-40"
       r="19.000118" />
  </g>
</svg>
