<?xml version="1.0" encoding="UTF-8" standalone="no"?>
<!-- Created with Inkscape (http://www.inkscape.org/) -->

<svg
   xmlns:dc="http://purl.org/dc/elements/1.1/"
   xmlns:cc="http://creativecommons.org/ns#"
   xmlns:rdf="http://www.w3.org/1999/02/22-rdf-syntax-ns#"
   xmlns:svg="http://www.w3.org/2000/svg"
   xmlns="http://www.w3.org/2000/svg"
   xmlns:sodipodi="http://sodipodi.sourceforge.net/DTD/sodipodi-0.dtd"
   xmlns:inkscape="http://www.inkscape.org/namespaces/inkscape"
   width="1200"
   height="250"
   viewBox="0 0 1200 250"
   id="svg3631"
   version="1.1"
   inkscape:version="0.91 r13725"
   sodipodi:docname="page_cover.svg">
  <defs
     id="defs3633" />
  <sodipodi:namedview
     id="base"
     pagecolor="#ffffff"
     bordercolor="#666666"
     borderopacity="1.0"
     inkscape:pageopacity="0.0"
     inkscape:pageshadow="2"
     inkscape:zoom="0.63037671"
     inkscape:cx="581.80957"
     inkscape:cy="118.73724"
     inkscape:document-units="px"
     inkscape:current-layer="layer1"
     showgrid="false"
     units="px"
     inkscape:snap-grids="true"
     inkscape:window-width="1440"
     inkscape:window-height="782"
     inkscape:window-x="0"
     inkscape:window-y="1"
     inkscape:window-maximized="1" />
  <metadata
     id="metadata3636">
    <rdf:RDF>
      <cc:Work
         rdf:about="">
        <dc:format>image/svg+xml</dc:format>
        <dc:type
           rdf:resource="http://purl.org/dc/dcmitype/StillImage" />
        <dc:title></dc:title>
      </cc:Work>
    </rdf:RDF>
  </metadata>
  <g
     inkscape:label="Layer 1"
     inkscape:groupmode="layer"
     id="layer1"
     transform="translate(0,-802.36216)">
    <g
       id="g5102"
       transform="matrix(2.2572487,0,0,2.291229,-9.6471191,793.39821)"
       style="display:inline;stroke-width:4;stroke-miterlimit:4;stroke-dasharray:none">
      <g
         transform="translate(-14.499996,-14.499567)"
         inkscape:label="e-layer"
         id="layer2"
         style="stroke-width:4;stroke-miterlimit:4;stroke-dasharray:none">
        <g
           transform="matrix(0.99998417,0,0,0.99999015,0.00137938,-24.999933)"
           style="stroke-width:4.0000515;stroke-miterlimit:4;stroke-dasharray:none"
           id="g4804">
          <path
             style="opacity:1;fill:#0000ff;fill-opacity:0.98591548;fill-rule:evenodd;stroke:#000000;stroke-width:4.0000515;stroke-linecap:round;stroke-linejoin:round;stroke-miterlimit:4;stroke-dasharray:none;stroke-opacity:1"
             d="m 46.40625,140.33008 a 104.1109,74.51363 0 0 1 1.244141,-5.6211 104.1109,74.51363 0 0 1 2.644531,-7.20507 104.1109,74.51363 0 0 1 3.595703,-6.90039 29.500137,29.500137 0 0 1 -7.132813,-12.16016 124.03643,74.51363 0 0 0 -5.703124,5.50976 124.03643,74.51363 0 0 0 -5.462891,6.68555 124.03643,74.51363 0 0 0 -2.978516,4.8086 49.50005,49.50005 0 0 0 13.792969,14.88281 z"
             id="path4752"
             inkscape:connector-curvature="0" />
          <path
             style="opacity:1;fill:#0000ff;fill-opacity:0.98591548;fill-rule:evenodd;stroke:#000000;stroke-width:4.0000515;stroke-linecap:round;stroke-linejoin:round;stroke-miterlimit:4;stroke-dasharray:none;stroke-opacity:1"
             d="M 109.98047,134.98047 95.845703,120.8457 A 29.500137,29.500137 0 0 1 75,129.5 a 29.500137,29.500137 0 0 1 -21.109375,-8.89648 104.1109,74.51363 0 0 0 -3.595703,6.90039 104.1109,74.51363 0 0 0 -2.644531,7.20507 104.1109,74.51363 0 0 0 -1.244141,5.6211 A 49.50005,49.50005 0 0 0 75,149.5 49.50005,49.50005 0 0 0 109.98047,134.98047 Z"
             id="path4750"
             inkscape:connector-curvature="0" />
          <path
             style="opacity:1;fill:#0000ff;fill-opacity:0.98591548;fill-rule:evenodd;stroke:#000000;stroke-width:4.0000515;stroke-linecap:round;stroke-linejoin:round;stroke-miterlimit:4;stroke-dasharray:none;stroke-opacity:1"
             d="m 119.2207,77.886719 a 124.03643,74.51363 0 0 0 -2.11718,0.277343 124.03643,74.51363 0 0 0 -11.79102,2.304688 124.03643,74.51363 0 0 0 -6.777344,1.791016 29.500137,29.500137 0 0 1 1.562504,2.277343 104.1109,74.51363 0 0 1 2.86523,-1.158203 104.1109,74.51363 0 0 1 9.5293,-2.99414 104.1109,74.51363 0 0 1 7.13476,-1.65625 49.50005,49.50005 0 0 0 -0.40625,-0.841797 z"
             id="path4748"
             inkscape:connector-curvature="0" />
          <path
             style="opacity:1;fill:#0000ff;fill-opacity:0.98591548;fill-rule:evenodd;stroke:#000000;stroke-width:4.0000515;stroke-linecap:round;stroke-linejoin:round;stroke-miterlimit:4;stroke-dasharray:none;stroke-opacity:1"
             d="m 75,50.5 a 49.50005,49.50005 0 0 0 -49.5,49.5 49.50005,49.50005 0 0 0 7.113281,25.44727 124.03643,74.51363 0 0 1 2.978516,-4.8086 124.03643,74.51363 0 0 1 5.462891,-6.68555 124.03643,74.51363 0 0 1 5.703124,-5.50976 A 29.500137,29.500137 0 0 1 45.5,100 29.500137,29.500137 0 0 1 75,70.5 29.500137,29.500137 0 0 1 98.535156,82.259766 124.03643,74.51363 0 0 1 105.3125,80.46875 124.03643,74.51363 0 0 1 117.10352,78.164062 124.03643,74.51363 0 0 1 119.2207,77.886719 49.50005,49.50005 0 0 0 75,50.5 Z"
             id="path4584"
             inkscape:connector-curvature="0" />
          <path
             inkscape:connector-curvature="0"
             id="path4617-9"
             style="opacity:1;fill:#00ffff;fill-opacity:1;fill-rule:evenodd;stroke:#000000;stroke-width:4.0000515;stroke-linecap:round;stroke-linejoin:round;stroke-miterlimit:4;stroke-dasharray:none;stroke-dashoffset:0;stroke-opacity:1"
             d="m 25.499016,149.50098 19.93137,0 A 104.1109,74.51363 0 0 1 141.53411,75.727746 124.03643,74.51363 0 0 0 25.499016,149.50098 Z m 123.509114,-73.99789 0,-0.004 a 104.1109,74.51363 0 0 0 -7.47402,0.228556 124.03643,74.51363 0 0 1 7.47402,-0.224646 z m 8e-5,0.0116 a 124.0073,74.501996 0 0 1 0.49802,-0.0156 104.08645,74.501996 0 0 0 -0.49802,0.0117 z" />
        </g>
      </g>
      <g
         transform="translate(-14.499996,-14.499567)"
         inkscape:label="star-layer"
         id="layer4"
         style="stroke-width:4;stroke-miterlimit:4;stroke-dasharray:none">
        <path
           inkscape:connector-curvature="0"
           id="path4776"
           d="m 150,25.499202 -3.56404,17.818271 -6.2361,-3.118055 3.11805,6.236109 -17.81827,3.564037 17.81827,3.564039 -3.11805,6.236108 6.2361,-3.118055 3.56404,17.818272 3.56402,-17.818272 6.23611,3.118055 -3.11805,-6.236108 17.81829,-3.564039 -17.81829,-3.564037 3.11805,-6.236109 -6.23611,3.118055 z"
           style="opacity:1;fill:#ffff00;fill-opacity:1;fill-rule:evenodd;stroke:#000000;stroke-width:4;stroke-linecap:butt;stroke-linejoin:round;stroke-miterlimit:4;stroke-dasharray:none;stroke-dashoffset:0;stroke-opacity:1" />
      </g>
      <g
         style="display:inline;stroke-width:4;stroke-miterlimit:4;stroke-dasharray:none"
         transform="translate(-14.499996,-437.01922)"
         id="layer1-1"
         inkscape:label="inf-layer">
        <g
           style="stroke-width:4;stroke-miterlimit:4;stroke-dasharray:none"
           transform="translate(-1.2172139e-6,24.999563)"
           id="g4579">
          <path
             style="opacity:1;fill:#ff00ff;fill-opacity:0.50196078;fill-rule:evenodd;stroke:#000000;stroke-width:4;stroke-linecap:round;stroke-linejoin:round;stroke-miterlimit:4;stroke-dasharray:none;stroke-opacity:1"
             d="m 99.499575,473.02008 a 24.000066,24.500056 0 0 0 -24.000026,24.50001 24.000066,24.500056 0 0 0 24.000026,24.50001 l 0,-9.99015 A 14.214232,14.510355 0 0 1 85.285836,497.52009 14.214232,14.510355 0 0 1 99.499575,483.01023 Z"
             id="path4515"
             inkscape:connector-curvature="0" />
          <path
             style="opacity:1;fill:#ff00ff;fill-opacity:0.50196078;fill-rule:evenodd;stroke:#000000;stroke-width:4;stroke-linecap:round;stroke-linejoin:round;stroke-miterlimit:4;stroke-dasharray:none;stroke-opacity:1"
             d="m 150.49955,473.02008 0,9.99015 a 14.214238,14.510358 0 0 1 14.21373,14.50986 14.214238,14.510358 0 0 1 -14.21373,14.50986 l 0,9.99015 a 24.000077,24.500061 0 0 0 24.00002,-24.50001 24.000077,24.500061 0 0 0 -24.00002,-24.50001 z"
             id="path4507"
             inkscape:connector-curvature="0" />
          <path
             style="opacity:1;fill:#00ff00;fill-opacity:0.50196078;fill-rule:evenodd;stroke:#000000;stroke-width:4;stroke-linecap:round;stroke-linejoin:round;stroke-miterlimit:4;stroke-dasharray:none;stroke-opacity:1"
             d="m 149.4998,473.01999 a 24.541895,24.525799 0 0 0 -23.90235,22.05932 24.541895,24.525799 0 0 0 -0.0978,1.94072 24.541895,24.525799 0 0 0 24.00014,-24.00004 z"
             id="path4517"
             inkscape:connector-curvature="0" />
          <path
             inkscape:connector-curvature="0"
             style="opacity:1;fill:#00ff00;fill-opacity:0.50196078;fill-rule:evenodd;stroke:#000000;stroke-width:4;stroke-linecap:round;stroke-linejoin:round;stroke-miterlimit:4;stroke-dasharray:none;stroke-opacity:1"
             d="m 100.49949,522.02001 a 24.542593,24.526513 0 0 0 23.90304,-22.05995 24.542593,24.526513 0 0 0 0.0978,-1.94077 24.542593,24.526513 0 0 0 -24.00083,24.00072 z"
             id="path4517-6" />
          <path
             style="opacity:1;fill:#ff0005;fill-opacity:0.5023474;fill-rule:evenodd;stroke:#000000;stroke-width:4;stroke-linecap:round;stroke-linejoin:round;stroke-miterlimit:4;stroke-dasharray:none;stroke-opacity:1"
             d="m 149.4998,522.02003 a 24.541896,24.525789 0 0 1 -23.90235,-22.05933 24.541896,24.525789 0 0 1 -0.0978,-1.94071 24.541896,24.525789 0 0 1 24.00014,24.00004 z"
             id="path4517-3"
             inkscape:connector-curvature="0" />
          <path
             inkscape:connector-curvature="0"
             style="opacity:1;fill:#ff0005;fill-opacity:0.5023474;fill-rule:evenodd;stroke:#000000;stroke-width:4;stroke-linecap:round;stroke-linejoin:round;stroke-miterlimit:4;stroke-dasharray:none;stroke-opacity:1"
             d="m 100.49949,473.01929 a 24.542594,24.526513 0 0 1 23.90304,22.05995 24.542594,24.526513 0 0 1 0.0978,1.94077 24.542594,24.526513 0 0 1 -24.00083,-24.00072 z"
             id="path4517-6-8" />
          <circle
             style="opacity:1;fill:#ffff00;fill-opacity:1;fill-rule:evenodd;stroke:#000000;stroke-width:4;stroke-linecap:round;stroke-linejoin:round;stroke-miterlimit:4;stroke-dasharray:none;stroke-opacity:1"
             id="path4570"
             cx="125"
             cy="497.51965"
             r="5" />
        </g>
      </g>
    </g>
    <path
       style="opacity:1;fill:#7eff00;fill-opacity:0.50196081;fill-rule:evenodd;stroke:#000000;stroke-width:9.09670067;stroke-linecap:round;stroke-linejoin:round;stroke-miterlimit:4;stroke-dasharray:none;stroke-dashoffset:0;stroke-opacity:0.25098041"
       d="m 389.7174,1020.4052 104.2699,43.8423 a 337.45869,342.53871 0 0 0 -0.1939,-262.08612 l -104.20377,43.81079 a 224.59405,227.97504 0 0 1 0.12777,174.43303 z"
       id="path5305"
       inkscape:connector-curvature="0" />
    <path
       style="opacity:1;fill:#00ff42;fill-opacity:0.50196081;fill-rule:evenodd;stroke:#000000;stroke-width:9.09670067;stroke-linecap:round;stroke-linejoin:round;stroke-miterlimit:4;stroke-dasharray:none;stroke-dashoffset:0;stroke-opacity:0.25098041"
       d="M 268.11252,1143.6529 311.278,1249.4297 A 337.45869,342.53871 0 0 0 493.9873,1064.2475 L 389.7174,1020.4052 A 224.59405,227.97504 0 0 1 268.11252,1143.6529 Z"
       id="path5303"
       inkscape:connector-curvature="0" />
    <path
       style="opacity:1;fill:#00fcff;fill-opacity:0.50196081;fill-rule:evenodd;stroke:#000000;stroke-width:9.09670067;stroke-linecap:round;stroke-linejoin:round;stroke-miterlimit:4;stroke-dasharray:none;stroke-dashoffset:0;stroke-opacity:0.25098041"
       d="M 96.270668,1143.7826 53.078732,1249.6268 A 337.45869,342.53871 0 0 0 311.278,1249.4298 L 268.11252,1143.653 a 224.59405,227.97504 0 0 1 -171.841852,0.1296 z"
       id="path5301"
       inkscape:connector-curvature="0" />
    <path
       style="opacity:1;fill:#003cff;fill-opacity:0.50196081;fill-rule:evenodd;stroke:#000000;stroke-width:9.09670067;stroke-linecap:round;stroke-linejoin:round;stroke-miterlimit:4;stroke-dasharray:none;stroke-dashoffset:0;stroke-opacity:0.25098041"
       d="m -25.149036,1020.3516 -104.208184,43.8153 a 337.45869,342.53871 0 0 0 182.435952,185.4599 l 43.191936,-105.8442 a 224.59405,227.97504 0 0 1 -121.419704,-123.431 z"
       id="path5299"
       inkscape:connector-curvature="0" />
    <path
       style="opacity:1;fill:#8401ff;fill-opacity:0.50196081;fill-rule:evenodd;stroke:#000000;stroke-width:9.09670067;stroke-linecap:round;stroke-linejoin:round;stroke-miterlimit:4;stroke-dasharray:none;stroke-dashoffset:0;stroke-opacity:0.25098041"
       d="M -25.281292,845.92296 -129.5512,802.08082 a 337.45869,342.53871 0 0 0 0.19398,262.08608 l 104.208184,-43.8153 a 224.59405,227.97504 0 0 1 -0.132275,-174.42864 z"
       id="path5297"
       inkscape:connector-curvature="0" />
    <path
       style="opacity:1;fill:#ff01ba;fill-opacity:0.50196081;fill-rule:evenodd;stroke:#000000;stroke-width:9.09670067;stroke-linecap:round;stroke-linejoin:round;stroke-miterlimit:4;stroke-dasharray:none;stroke-dashoffset:0;stroke-opacity:0.25098041"
       d="M 96.319149,722.67094 53.158097,616.89852 A 337.45869,342.53871 0 0 0 -129.5512,802.08082 l 104.269908,43.84214 A 224.59405,227.97504 0 0 1 96.319149,722.67094 Z"
       id="path5295"
       inkscape:connector-curvature="0" />
    <path
       style="opacity:1;fill:#ff0000;fill-opacity:0.50196081;fill-rule:evenodd;stroke:#000000;stroke-width:9.09670067;stroke-linecap:round;stroke-linejoin:round;stroke-miterlimit:4;stroke-dasharray:none;stroke-dashoffset:0;stroke-opacity:0.25098041"
       d="M 311.35737,616.7016 A 337.45869,342.53871 0 0 0 53.158097,616.89842 L 96.319149,722.67086 A 224.59405,227.97504 0 0 1 268.16543,722.54117 Z"
       id="path5293"
       inkscape:connector-curvature="0" />
    <path
       style="opacity:1;fill:#ffc000;fill-opacity:0.50196081;fill-rule:evenodd;stroke:#000000;stroke-width:9.09670067;stroke-linecap:round;stroke-linejoin:round;stroke-miterlimit:4;stroke-dasharray:none;stroke-dashoffset:0;stroke-opacity:0.25098041"
       d="m 311.35737,616.7016 -43.19194,105.83957 a 224.59405,227.97504 0 0 1 121.42411,123.431 L 493.79331,802.16138 A 337.45869,342.53871 0 0 0 311.35737,616.7016 Z"
       id="path5277"
       inkscape:connector-curvature="0" />
    <ellipse
       style="opacity:1;fill:#ff0000;fill-opacity:0.50196081;fill-rule:evenodd;stroke:#000000;stroke-width:8.86928272;stroke-linecap:round;stroke-linejoin:round;stroke-miterlimit:4;stroke-dasharray:none;stroke-dashoffset:0;stroke-opacity:0.25098041"
       id="path5319"
       cx="181.34427"
       cy="521.55597"
       rx="42.893089"
       ry="43.538788" />
    <ellipse
       style="opacity:1;fill:#ffc000;fill-opacity:0.50196081;fill-rule:evenodd;stroke:#000000;stroke-width:9.09670067;stroke-linecap:round;stroke-linejoin:round;stroke-miterlimit:4;stroke-dasharray:none;stroke-dashoffset:0;stroke-opacity:0.25098041"
       id="path5321"
       cx="475.66037"
       cy="635.30432"
       rx="42.887997"
       ry="43.533623" />
    <ellipse
       style="opacity:1;fill:#7eff00;fill-opacity:0.50196081;fill-rule:evenodd;stroke:#000000;stroke-width:9.09670067;stroke-linecap:round;stroke-linejoin:round;stroke-miterlimit:4;stroke-dasharray:none;stroke-dashoffset:0;stroke-opacity:0.25098041"
       id="path5323"
       cx="588.52283"
       cy="933.16412"
       rx="42.887997"
       ry="43.533623" />
    <ellipse
       style="opacity:1;fill:#00ff42;fill-opacity:0.50196081;fill-rule:evenodd;stroke:#000000;stroke-width:9.09670067;stroke-linecap:round;stroke-linejoin:round;stroke-miterlimit:4;stroke-dasharray:none;stroke-dashoffset:0;stroke-opacity:0.25098041"
       id="path5325"
       cx="475.66037"
       cy="1231.0238"
       rx="42.887985"
       ry="43.533611" />
    <ellipse
       style="opacity:1;fill:#00fcff;fill-opacity:0.50196081;fill-rule:evenodd;stroke:#000000;stroke-width:9.09670067;stroke-linecap:round;stroke-linejoin:round;stroke-miterlimit:4;stroke-dasharray:none;stroke-dashoffset:0;stroke-opacity:0.25098041"
       id="path5327"
       cx="182.21805"
       cy="1345.5853"
       rx="42.887997"
       ry="43.533623" />
    <ellipse
       style="opacity:1;fill:#003cff;fill-opacity:0.50196081;fill-rule:evenodd;stroke:#000000;stroke-width:9.09670067;stroke-linecap:round;stroke-linejoin:round;stroke-miterlimit:4;stroke-dasharray:none;stroke-dashoffset:0;stroke-opacity:0.25098041"
       id="path5329"
       cx="-111.22425"
       cy="1231.0238"
       rx="42.887997"
       ry="43.533623" />
    <ellipse
       style="opacity:1;fill:#8401ff;fill-opacity:0.50196081;fill-rule:evenodd;stroke:#000000;stroke-width:9.09670067;stroke-linecap:round;stroke-linejoin:round;stroke-miterlimit:4;stroke-dasharray:none;stroke-dashoffset:0;stroke-opacity:0.25098041"
       id="path5331"
       cx="-224.08673"
       cy="933.16412"
       rx="42.887997"
       ry="43.533623" />
    <ellipse
       style="opacity:1;fill:#ff01ba;fill-opacity:0.50196081;fill-rule:evenodd;stroke:#000000;stroke-width:9.09670067;stroke-linecap:round;stroke-linejoin:round;stroke-miterlimit:4;stroke-dasharray:none;stroke-dashoffset:0;stroke-opacity:0.25098041"
       id="path5333"
       cx="-111.22425"
       cy="635.30432"
       rx="42.887997"
       ry="43.533623" />
    <text
       xml:space="preserve"
       style="font-style:normal;font-weight:normal;font-size:40px;line-height:125%;font-family:sans-serif;letter-spacing:0px;word-spacing:0px;fill:#000000;fill-opacity:1;stroke:none;stroke-width:1px;stroke-linecap:butt;stroke-linejoin:miter;stroke-opacity:1"
       x="439.9017"
       y="1025.3942"
       id="text4536"
       sodipodi:linespacing="125%"><tspan
         sodipodi:role="line"
         id="tspan4538"
         x="439.9017"
         y="1025.3942"
         style="font-style:italic;font-variant:normal;font-weight:500;font-stretch:normal;font-size:50px;font-family:'Helvetica Neue';-inkscape-font-specification:'Helvetica Neue Medium Italic'">Evolution to the Power of Infinity</tspan></text>
  </g>
  <g
     inkscape:groupmode="layer"
     id="layer3"
     inkscape:label="text">
    <text
       xml:space="preserve"
       style="font-style:normal;font-weight:normal;font-size:40px;line-height:125%;font-family:sans-serif;letter-spacing:0px;word-spacing:0px;fill:#000000;fill-opacity:1;stroke:none;stroke-width:1px;stroke-linecap:butt;stroke-linejoin:miter;stroke-opacity:1"
       x="477.34689"
       y="81.395447"
       id="text4513"
       sodipodi:linespacing="125%"><tspan
         sodipodi:role="line"
         id="tspan4515"
         x="477.34689"
         y="81.395447"
         style="font-style:normal;font-variant:normal;font-weight:bold;font-stretch:normal;font-size:80px;font-family:Futura;-inkscape-font-specification:'Futura Bold'">yingkh.github.io</tspan></text>
  </g>
</svg>
